{
  "accessors": [
    {
      "bufferView": 2,
      "componentType": 5126,
      "count": 11872,
      "max": [
        2.3801000118255615,
        1.1401000022888184,
        0.8618999719619751
      ],
      "min": [
        -2.3801000118255615,
        -0.8472999930381775,
        -7.6915998458862305
      ],
      "type": "VEC3"
    },
    {
      "bufferView": 2,
      "byteOffset": 142464,
      "componentType": 5126,
      "count": 11872,
      "max": [
        0.9999921321868896,
        0.999985933303833,
        0.9998118281364441
      ],
      "min": [
        -0.9999921321868896,
        -0.9998538494110107,
        -0.9999411106109619
      ],
      "type": "VEC3"
    },
    {
      "bufferView": 3,
      "componentType": 5126,
      "count": 11872,
      "max": [
        1.0,
        0.9999897480010986,
        0.9998420476913452,
        1.0
      ],
      "min": [
        -1.0,
        -0.9998398423194885,
        -0.9998706579208374,
        -1.0
      ],
      "type": "VEC4"
    },
    {
      "bufferView": 1,
      "componentType": 5126,
      "count": 11872,
      "max": [
        0.9958999752998352,
        0.9991000294685364
      ],
      "min": [
        0.003000000026077032,
        0.0013000000035390258
      ],
      "type": "VEC2"
    },
    {
      "bufferView": 0,
      "componentType": 5125,
      "count": 60636,
      "type": "SCALAR"
    },
    {
      "bufferView": 2,
      "byteOffset": 284928,
      "componentType": 5126,
      "count": 2199,
      "max": [
        2.1914000511169434,
        0.6136000156402588,
        -1.19350004196167
      ],
      "min": [
        -2.1914000511169434,
        -0.3781000077724457,
        -7.094200134277344
      ],
      "type": "VEC3"
    },
    {
      "bufferView": 2,
      "byteOffset": 311316,
      "componentType": 5126,
      "count": 2199,
      "max": [
        1.0,
        0.999605119228363,
        0.9995362162590027
      ],
      "min": [
        -0.999803364276886,
        -0.9997815489768982,
        -0.9986156225204468
      ],
      "type": "VEC3"
    },
    {
      "bufferView": 3,
      "byteOffset": 189952,
      "componentType": 5126,
      "count": 2199,
      "max": [
        0.9999962449073792,
        1.0,
        0.9993177056312561,
        1.0
      ],
      "min": [
        -0.9999672174453735,
        -0.9999074935913086,
        -0.9999490976333618,
        -1.0
      ],
      "type": "VEC4"
    },
    {
      "bufferView": 1,
      "byteOffset": 94976,
      "componentType": 5126,
      "count": 2199,
      "max": [
        0.988099992275238,
        0.9973999857902527
      ],
      "min": [
        0.01140000019222498,
        0.008700000122189522
      ],
      "type": "VEC2"
    },
    {
      "bufferView": 0,
      "byteOffset": 242544,
      "componentType": 5125,
      "count": 11334,
      "type": "SCALAR"
    }
  ],
  "asset": {
    "extras": {
      "author": "Valentin Yovchev (https://sketchfab.com/spybg)",
      "license": "CC-BY-4.0 (http://creativecommons.org/licenses/by/4.0/)",
      "source": "https://sketchfab.com/3d-models/nasa-alien-ad66074434ab46cb91f7aa83dcf56260",
      "title": "Nasa Alien"
    },
    "generator": "Sketchfab-12.67.0",
    "version": "2.0"
  },
  "bufferViews": [
    {
      "buffer": 0,
      "byteLength": 287880,
      "name": "floatBufferViews",
      "target": 34963
    },
    {
      "buffer": 0,
      "byteLength": 112568,
      "byteOffset": 287880,
      "byteStride": 8,
      "name": "floatBufferViews",
      "target": 34962
    },
    {
      "buffer": 0,
      "byteLength": 337704,
      "byteOffset": 400448,
      "byteStride": 12,
      "name": "floatBufferViews",
      "target": 34962
    },
    {
      "buffer": 0,
      "byteLength": 225136,
      "byteOffset": 738152,
      "byteStride": 16,
      "name": "floatBufferViews",
      "target": 34962
    }
  ],
  "buffers": [
    {
      "byteLength": 963288,
      "uri": "scene.bin"
    }
  ],
  "extensionsRequired": [
    "KHR_materials_pbrSpecularGlossiness"
  ],
  "extensionsUsed": [
    "KHR_materials_pbrSpecularGlossiness"
  ],
  "images": [
    {
      "uri": "textures/08___Default33_diffuse.jpeg"
    },
    {
      "uri": "textures/08___Default33_specularGlossiness.png"
    },
    {
      "uri": "textures/08___Default33_emissive.jpeg"
    },
    {
      "uri": "textures/08___Default33_normal.jpeg"
    },
    {
      "uri": "textures/08___Default34_diffuse.jpeg"
    },
    {
      "uri": "textures/08___Default34_specularGlossiness.png"
    },
    {
      "uri": "textures/08___Default34_emissive.jpeg"
    },
    {
      "uri": "textures/08___Default34_normal.jpeg"
    },
    {
      "uri": "textures/08___Default34_occlusion.png"
    }
  ],
  "materials": [
    {
      "emissiveFactor": [
        1.0,
        1.0,
        1.0
      ],
      "emissiveTexture": {
        "index": 2
      },
      "extensions": {
        "KHR_materials_pbrSpecularGlossiness": {
          "diffuseFactor": [
            1.0,
            1.0,
            1.0,
            1.0
          ],
          "diffuseTexture": {
            "index": 0
          },
          "glossinessFactor": 1.0,
          "specularFactor": [
            1.0,
            1.0,
            1.0
          ],
          "specularGlossinessTexture": {
            "index": 1
          }
        }
      },
      "name": "08___Default33",
      "normalTexture": {
        "index": 3
      }
    },
    {
      "doubleSided": true,
      "emissiveFactor": [
        1.0,
        1.0,
        1.0
      ],
      "emissiveTexture": {
        "index": 6
      },
      "extensions": {
        "KHR_materials_pbrSpecularGlossiness": {
          "diffuseFactor": [
            1.0,
            1.0,
            1.0,
            1.0
          ],
          "diffuseTexture": {
            "index": 4
          },
          "glossinessFactor": 1.0,
          "specularFactor": [
            1.0,
            1.0,
            1.0
          ],
          "specularGlossinessTexture": {
            "index": 5
          }
        }
      },
      "name": "08___Default34",
      "normalTexture": {
        "index": 7
      },
      "occlusionTexture": {
        "index": 8
      }
    }
  ],
  "meshes": [
    {
      "name": "Object_0",
      "primitives": [
        {
          "attributes": {
            "NORMAL": 1,
            "POSITION": 0,
            "TANGENT": 2,
            "TEXCOORD_0": 3
          },
          "indices": 4,
          "material": 0,
          "mode": 4
        }
      ]
    },
    {
      "name": "Object_1",
      "primitives": [
        {
          "attributes": {
            "NORMAL": 6,
            "POSITION": 5,
            "TANGENT": 7,
            "TEXCOORD_0": 8
          },
          "indices": 9,
          "material": 1,
          "mode": 4
        }
      ]
    }
  ],
  "nodes": [
    {
      "children": [
        1
      ],
      "matrix": [
        1.0,
        0.0,
        0.0,
        0.0,
        0.0,
        2.220446049250313e-16,
        -1.0,
        0.0,
        0.0,
        1.0,
        2.220446049250313e-16,
        0.0,
        0.0,
        0.0,
        0.0,
        1.0
      ],
      "name": "Sketchfab_model"
    },
    {
      "children": [
        2,
        3
      ],
      "name": "Mesh.obj.cleaner.gles"
    },
    {
      "mesh": 0,
      "name": "Object_2"
    },
    {
      "mesh": 1,
      "name": "Object_3"
    }
  ],
  "samplers": [
    {
      "magFilter": 9729,
      "minFilter": 9987,
      "wrapS": 10497,
      "wrapT": 10497
    }
  ],
  "scene": 0,
  "scenes": [
    {
      "name": "Sketchfab_Scene",
      "nodes": [
        0
      ]
    }
  ],
  "textures": [
    {
      "sampler": 0,
      "source": 0
    },
    {
      "sampler": 0,
      "source": 1
    },
    {
      "sampler": 0,
      "source": 2
    },
    {
      "sampler": 0,
      "source": 3
    },
    {
      "sampler": 0,
      "source": 4
    },
    {
      "sampler": 0,
      "source": 5
    },
    {
      "sampler": 0,
      "source": 6
    },
    {
      "sampler": 0,
      "source": 7
    },
    {
      "sampler": 0,
      "source": 8
    }
  ]
}
